<?xml version="1.0" encoding="UTF-8"?>
<svg version="1.1" xmlns="http://www.w3.org/2000/svg" width="512" height="512">
<path d="M0 0 C1.7464396 1.50096639 3.47649166 3.02126613 5.1875 4.5625 C5.96738281 5.25988281 6.74726563 5.95726562 7.55078125 6.67578125 C26.01740726 24.12179926 36.12967396 49.15840296 37.37109375 74.27734375 C37.58419622 86.42418431 36.16266004 98.06103695 32.1875 109.5625 C33.38375 109.624375 34.58 109.68625 35.8125 109.75 C55.81613904 112.03881763 73.80793499 124.65079792 86.76953125 139.42578125 C102.31377243 159.59060462 106.58628227 183.03404576 103.91943359 208.08007812 C100.84242822 227.56052516 88.6940818 246.76510962 73.3203125 258.80859375 C55.41700128 271.78740005 37.0357565 276.72398129 15.01937866 276.69621277 C13.68601595 276.69808318 12.35265378 276.7003848 11.01929247 276.70307809 C7.37027963 276.70917423 3.72128978 276.70906508 0.07227302 276.70788372 C-3.8692715 276.70767915 -7.81080875 276.71320384 -11.75234985 276.71794128 C-19.46963081 276.72623681 -27.18690414 276.72899564 -34.90418918 276.72955366 C-41.18057684 276.73002942 -47.45696198 276.73208715 -53.73334885 276.73525429 C-71.54452486 276.74405849 -89.35569485 276.74867412 -107.16687305 276.74792381 C-108.12645827 276.74788386 -109.08604348 276.7478439 -110.07470703 276.74780273 C-111.03546986 276.74776185 -111.99623269 276.74772097 -112.98610954 276.74767885 C-128.54754914 276.74727263 -144.10896452 276.75683685 -159.67039712 276.7709411 C-175.66491523 276.78532296 -191.65942154 276.79221026 -207.65394628 276.79134732 C-216.62708203 276.79101594 -225.60019239 276.79373716 -234.5733223 276.80452538 C-242.21509234 276.8136543 -249.8568255 276.8157861 -257.49859865 276.80901595 C-261.3929769 276.80576256 -265.28728447 276.80565104 -269.18165588 276.8143692 C-272.75589574 276.82228793 -276.33000951 276.82074862 -279.90424649 276.81208507 C-281.79035792 276.80984745 -283.67647343 276.8173364 -285.56256926 276.82532471 C-311.26838995 276.72266772 -333.95490953 268.77340333 -353.8125 252.5625 C-354.4415625 252.09714844 -355.070625 251.63179688 -355.71875 251.15234375 C-373.68082019 237.29952075 -384.78515562 212.57600802 -387.8125 190.5625 C-389.99171309 159.4905129 -383.63367426 133.2481577 -363.20532227 109.33837891 C-354.51503735 99.52095128 -344.39304539 92.48031174 -332.8125 86.5625 C-331.72453125 86.005625 -330.6365625 85.44875 -329.515625 84.875 C-308.2279875 74.88080399 -284.4227749 74.18976141 -261.8125 79.5625 C-261.71066406 78.71171875 -261.60882813 77.8609375 -261.50390625 76.984375 C-259.4082504 66.61265455 -252.77485053 57.28192165 -245.8125 49.5625 C-244.92498047 48.53576172 -244.92498047 48.53576172 -244.01953125 47.48828125 C-230.4241597 32.73338973 -211.24077713 26.06345648 -191.69140625 24.27734375 C-177.24150704 23.8263971 -163.9928241 28.14664874 -150.8125 33.5625 C-150.56886719 32.70398438 -150.32523438 31.84546875 -150.07421875 30.9609375 C-142.81768736 11.41548144 -123.33729517 -3.15829131 -105.4375 -12.12890625 C-70.77272768 -27.84622916 -29.96443592 -23.85518199 0 0 Z " fill="#ffffff" transform="translate(397.8125,128.4375)"/>
</svg>
