<?xml version="1.0" encoding="iso-8859-1"?>
<!-- Generator: Adobe Illustrator 23.0.3, SVG Export Plug-In . SVG Version: 6.00 Build 0)  -->
<svg version="1.1" xmlns="http://www.w3.org/2000/svg" xmlns:xlink="http://www.w3.org/1999/xlink" x="0px" y="0px"
	 viewBox="0 0 50 50" style="enable-background:new 0 0 50 50;" xml:space="preserve">
<g id="Layer_10" style="display:none;">
</g>
<g id="filled">
</g>
<g id="outlined">
</g>
<g id="rounded">
</g>
<g id="two_x5F_tone">
</g>
<g id="sharp">
</g>
<g id="win10">
</g>
<g id="ios_x5F_out">
</g>
<g id="ios_x5F_filled">
	<path fill="white" d="M39.485,15.126l-27-15c-0.31-0.172-0.687-0.168-0.993,0.012C11.188,0.318,11,0.646,11,1v12.354
		c0,0.384,0.22,0.735,0.567,0.901l18,8.646C29.704,22.967,29.853,23,30,23c0.194,0,0.388-0.057,0.555-0.168l9-6
		c0.29-0.193,0.459-0.524,0.444-0.873C39.985,15.611,39.79,15.295,39.485,15.126z"/>
	<path fill="white" d="M11,18v30.999c0,0.76,0.813,1.242,1.48,0.877l28.016-16.008C40.808,33.69,41,33.359,41,33V20
		c0-0.408-0.247-0.774-0.625-0.927c-0.38-0.152-0.812-0.061-1.095,0.232L13,47l7.956-23.706c0.133-0.433-0.042-0.902-0.426-1.142
		l-8-5c-0.309-0.193-0.697-0.203-1.015-0.026C11.197,17.302,11,17.636,11,18z"/>
</g>
<g id="color">
</g>
</svg>