<?xml version="1.0" encoding="UTF-8"?>
<svg version="1.1" xmlns="http://www.w3.org/2000/svg" width="512" height="512">
<path d="M0 0 C9.58090833 6.95491186 14.11753883 14.88296898 16.5390625 26.45703125 C17.81024536 37.16924635 15.05587068 46.90842375 8.5390625 55.45703125 C7.31987623 56.86893415 6.09975352 58.28008507 4.8684082 59.68139648 C-15.23412198 82.61894408 -27.22445452 110.39064832 -31.4609375 140.45703125 C-31.59242187 141.34261719 -31.72390625 142.22820312 -31.859375 143.140625 C-36.5706081 180.8941551 -24.37520853 220.52405387 -1.3359375 250.45703125 C21.83277392 279.51560504 53.27727299 297.95099335 89.5390625 305.45703125 C90.67988281 305.70324219 91.82070312 305.94945312 92.99609375 306.203125 C130.64241786 312.9339721 171.05354674 302.90707137 202.24560547 281.2734375 C234.95711753 257.86009358 256.76006143 223.40462567 264.03125 183.78125 C264.19882812 182.68425781 264.36640625 181.58726562 264.5390625 180.45703125 C264.81363281 178.66652344 264.81363281 178.66652344 265.09375 176.83984375 C269.66736149 138.67620539 259.06924463 98.46549205 235.33422852 68.15087891 C232.50484901 64.59740055 229.58323848 61.12453414 226.6640625 57.64453125 C219.37087606 48.74349947 216.05259872 40.08975679 216.6640625 28.45703125 C217.88786199 17.48503581 222.64851652 8.22383778 231.2265625 1.20703125 C240.9621591 -5.50337996 251.03290883 -6.64709461 262.5390625 -5.54296875 C271.55864463 -3.83625584 277.26604608 0.99921238 283.5390625 7.45703125 C284.25449219 8.17503906 284.96992188 8.89304687 285.70703125 9.6328125 C297.94232012 22.53669639 307.48434669 37.68429193 315.5390625 53.45703125 C315.96316406 54.28074219 316.38726562 55.10445312 316.82421875 55.953125 C344.45621666 110.14483433 347.8501674 172.66742985 329.61279297 230.38867188 C319.9494261 259.12784246 304.22302931 286.10877275 283.53515625 308.30859375 C281.71521004 310.26743997 280.00188877 312.27999 278.2890625 314.33203125 C243.78354816 353.76690478 189.04641252 377.81127027 137.5390625 382.45703125 C120.45044683 383.57200444 103.51075029 384.02615415 86.5390625 381.45703125 C85.57178223 381.31555664 84.60450195 381.17408203 83.60791016 381.02832031 C27.78155617 372.51588529 -24.54763667 343.10636801 -59.4609375 298.45703125 C-60.23824219 297.50828125 -61.01554687 296.55953125 -61.81640625 295.58203125 C-98.1603824 250.28206734 -113.59753685 190.19440652 -107.69140625 132.84326172 C-101.79590456 84.97470335 -81.40808371 38.99974142 -47.4609375 4.45703125 C-46.84863281 3.82023437 -46.23632812 3.1834375 -45.60546875 2.52734375 C-33.5727937 -8.96228896 -13.49108781 -8.45869791 0 0 Z " fill="#9333ea" transform="translate(139.4609375,108.54296875)"/>
<path d="M0 0 C10.17760567 6.15027091 15.86400006 14.61983631 18.89972305 26.04319954 C20.2598105 33.39028292 19.96219247 40.86665754 19.93505859 48.31420898 C19.9391299 50.19781803 19.9444749 52.08142468 19.95098877 53.96502686 C19.96460265 59.05392205 19.95938804 64.14263368 19.94985151 69.23153186 C19.94222298 74.57371667 19.94930947 79.91588643 19.95401001 85.2580719 C19.95945876 94.22814741 19.95229958 103.19814867 19.93798828 112.16821289 C19.92166848 122.51619847 19.92694901 132.86400664 19.9434675 143.21198791 C19.95711344 152.11934528 19.9589867 161.02664946 19.95115149 169.9340139 C19.9464914 175.24394101 19.94580402 180.55378493 19.95576096 185.86370659 C19.9644735 190.8583945 19.95833084 195.85285535 19.94107819 200.84751892 C19.93713593 202.67273648 19.93820826 204.49797339 19.94486618 206.32318306 C19.99454423 221.33436493 19.21352988 234.22489892 8.5078125 245.73046875 C0.34502215 253.5615556 -9.32092242 256.96751746 -20.5703125 256.81640625 C-31.70498042 255.74518481 -40.24369255 251.28984624 -47.703125 243.1640625 C-54.60657595 234.60978633 -56.77080873 225.01872921 -56.71382141 214.20376587 C-56.71764696 213.41571166 -56.72147251 212.62765746 -56.72541398 211.81572282 C-56.73564815 209.20211121 -56.73177024 206.58872324 -56.7277832 203.97509766 C-56.73213499 202.09016214 -56.73731969 200.20522839 -56.74327087 198.32029724 C-56.75662188 193.21899457 -56.75724389 188.11776618 -56.75470757 183.01644945 C-56.75363521 178.74972008 -56.75852801 174.48300557 -56.763313 170.21627939 C-56.77439471 160.146128 -56.77485311 150.07601391 -56.76879883 140.00585938 C-56.76275952 129.63518177 -56.77507208 119.26463985 -56.7963689 108.89398539 C-56.81401139 99.97310259 -56.81998208 91.05226287 -56.81673115 82.13136327 C-56.81492238 76.81081091 -56.81751394 71.49035536 -56.83144569 66.16981888 C-56.84406253 61.16450301 -56.84204352 56.15939796 -56.82903481 51.15408516 C-56.82667786 49.32360702 -56.82937186 47.49311387 -56.83765793 45.66265297 C-56.89940859 30.95384481 -55.80953152 18.12930085 -45.70703125 6.53515625 C-33.61041082 -5.10878399 -14.93939773 -7.38716075 0 0 Z " fill="#9333ea" transform="translate(274.453125,23.4609375)"/>
</svg>
